<svg id="visual" viewBox="0 0 900 600" width="900" height="600" xmlns="http://www.w3.org/2000/svg" xmlns:xlink="http://www.w3.org/1999/xlink" version="1.1"><g stroke-width="1" stroke-linejoin="bevel"><path d="M433 263L477 187L380 171Z" fill="#ffffff" stroke="#ffffff"></path><path d="M477 187L402 110L380 171Z" fill="#ebebeb" stroke="#ebebeb"></path><path d="M269 204L315 301L380 171Z" fill="#ffffff" stroke="#ffffff"></path><path d="M380 171L315 301L433 263Z" fill="#f8f8f8" stroke="#f8f8f8"></path><path d="M413 417L498 332L433 263Z" fill="#f2f2f2" stroke="#f2f2f2"></path><path d="M433 263L498 332L477 187Z" fill="#f8f8f8" stroke="#f8f8f8"></path><path d="M269 139L269 204L380 171Z" fill="#e5e5e5" stroke="#e5e5e5"></path><path d="M611 160L535 98L477 187Z" fill="#e5e5e5" stroke="#e5e5e5"></path><path d="M477 187L535 98L402 110Z" fill="#dedede" stroke="#dedede"></path><path d="M402 110L269 139L380 171Z" fill="#cbcbcb" stroke="#cbcbcb"></path><path d="M618 271L611 160L477 187Z" fill="#d1d1d1" stroke="#d1d1d1"></path><path d="M498 332L618 271L477 187Z" fill="#dedede" stroke="#dedede"></path><path d="M536 0L424 0L535 98Z" fill="#d1d1d1" stroke="#d1d1d1"></path><path d="M535 98L424 0L402 110Z" fill="#dedede" stroke="#dedede"></path><path d="M402 110L293 0L269 139Z" fill="#bebebe" stroke="#bebebe"></path><path d="M315 301L413 417L433 263Z" fill="#d8d8d8" stroke="#d8d8d8"></path><path d="M498 332L586 405L618 271Z" fill="#ebebeb" stroke="#ebebeb"></path><path d="M712 120L618 112L611 160Z" fill="#f2f2f2" stroke="#f2f2f2"></path><path d="M611 160L618 112L535 98Z" fill="#c4c4c4" stroke="#c4c4c4"></path><path d="M209 308L284 379L315 301Z" fill="#d1d1d1" stroke="#d1d1d1"></path><path d="M315 301L284 379L413 417Z" fill="#d1d1d1" stroke="#d1d1d1"></path><path d="M413 417L535 407L498 332Z" fill="#d8d8d8" stroke="#d8d8d8"></path><path d="M269 139L197 163L269 204Z" fill="#d1d1d1" stroke="#d1d1d1"></path><path d="M269 204L209 308L315 301Z" fill="#f2f2f2" stroke="#f2f2f2"></path><path d="M205 101L197 163L269 139Z" fill="#e5e5e5" stroke="#e5e5e5"></path><path d="M635 0L536 0L535 98Z" fill="#bebebe" stroke="#bebebe"></path><path d="M197 163L209 308L269 204Z" fill="#bebebe" stroke="#bebebe"></path><path d="M293 0L205 101L269 139Z" fill="#f8f8f8" stroke="#f8f8f8"></path><path d="M424 0L293 0L402 110Z" fill="#dedede" stroke="#dedede"></path><path d="M635 507L586 405L535 407Z" fill="#f2f2f2" stroke="#f2f2f2"></path><path d="M535 407L586 405L498 332Z" fill="#d8d8d8" stroke="#d8d8d8"></path><path d="M437 539L479 480L413 417Z" fill="#dedede" stroke="#dedede"></path><path d="M413 417L479 480L535 407Z" fill="#dedede" stroke="#dedede"></path><path d="M726 330L708 177L618 271Z" fill="#d1d1d1" stroke="#d1d1d1"></path><path d="M618 271L708 177L611 160Z" fill="#bebebe" stroke="#bebebe"></path><path d="M618 112L635 0L535 98Z" fill="#d1d1d1" stroke="#d1d1d1"></path><path d="M293 0L217 0L205 101Z" fill="#d1d1d1" stroke="#d1d1d1"></path><path d="M120 87L117 176L197 163Z" fill="#d8d8d8" stroke="#d8d8d8"></path><path d="M712 120L635 0L618 112Z" fill="#ebebeb" stroke="#ebebeb"></path><path d="M708 177L712 120L611 160Z" fill="#d8d8d8" stroke="#d8d8d8"></path><path d="M209 308L200 416L284 379Z" fill="#ffffff" stroke="#ffffff"></path><path d="M284 379L262 483L413 417Z" fill="#c4c4c4" stroke="#c4c4c4"></path><path d="M123 324L200 416L209 308Z" fill="#ffffff" stroke="#ffffff"></path><path d="M120 87L197 163L205 101Z" fill="#f2f2f2" stroke="#f2f2f2"></path><path d="M197 163L117 176L209 308Z" fill="#ebebeb" stroke="#ebebeb"></path><path d="M200 416L262 483L284 379Z" fill="#cbcbcb" stroke="#cbcbcb"></path><path d="M117 176L123 324L209 308Z" fill="#dedede" stroke="#dedede"></path><path d="M710 370L618 271L586 405Z" fill="#cbcbcb" stroke="#cbcbcb"></path><path d="M710 370L726 330L618 271Z" fill="#d8d8d8" stroke="#d8d8d8"></path><path d="M708 177L798 216L712 120Z" fill="#f2f2f2" stroke="#f2f2f2"></path><path d="M217 0L120 87L205 101Z" fill="#d1d1d1" stroke="#d1d1d1"></path><path d="M669 472L710 370L586 405Z" fill="#d8d8d8" stroke="#d8d8d8"></path><path d="M262 483L437 539L413 417Z" fill="#bebebe" stroke="#bebebe"></path><path d="M635 507L669 472L586 405Z" fill="#d1d1d1" stroke="#d1d1d1"></path><path d="M781 377L771 294L726 330Z" fill="#e5e5e5" stroke="#e5e5e5"></path><path d="M726 330L771 294L708 177Z" fill="#bebebe" stroke="#bebebe"></path><path d="M635 507L535 407L479 480Z" fill="#ebebeb" stroke="#ebebeb"></path><path d="M710 370L781 377L726 330Z" fill="#dedede" stroke="#dedede"></path><path d="M793 0L720 0L712 120Z" fill="#d8d8d8" stroke="#d8d8d8"></path><path d="M712 120L720 0L635 0Z" fill="#dedede" stroke="#dedede"></path><path d="M517 600L635 507L479 480Z" fill="#ffffff" stroke="#ffffff"></path><path d="M771 294L798 216L708 177Z" fill="#cbcbcb" stroke="#cbcbcb"></path><path d="M0 377L118 433L123 324Z" fill="#d1d1d1" stroke="#d1d1d1"></path><path d="M123 324L118 433L200 416Z" fill="#f2f2f2" stroke="#f2f2f2"></path><path d="M200 416L198 515L262 483Z" fill="#dedede" stroke="#dedede"></path><path d="M118 433L198 515L200 416Z" fill="#ffffff" stroke="#ffffff"></path><path d="M303 600L412 600L437 539Z" fill="#ebebeb" stroke="#ebebeb"></path><path d="M303 600L437 539L262 483Z" fill="#e5e5e5" stroke="#e5e5e5"></path><path d="M437 539L517 600L479 480Z" fill="#f8f8f8" stroke="#f8f8f8"></path><path d="M815 489L781 377L669 472Z" fill="#f2f2f2" stroke="#f2f2f2"></path><path d="M669 472L781 377L710 370Z" fill="#c4c4c4" stroke="#c4c4c4"></path><path d="M900 300L900 161L798 216Z" fill="#ebebeb" stroke="#ebebeb"></path><path d="M412 600L517 600L437 539Z" fill="#e5e5e5" stroke="#e5e5e5"></path><path d="M0 90L0 223L117 176Z" fill="#ffffff" stroke="#ffffff"></path><path d="M117 176L0 223L123 324Z" fill="#f8f8f8" stroke="#f8f8f8"></path><path d="M217 0L75 0L120 87Z" fill="#d8d8d8" stroke="#d8d8d8"></path><path d="M198 515L303 600L262 483Z" fill="#d8d8d8" stroke="#d8d8d8"></path><path d="M837 103L793 0L712 120Z" fill="#c4c4c4" stroke="#c4c4c4"></path><path d="M0 90L117 176L120 87Z" fill="#ffffff" stroke="#ffffff"></path><path d="M900 161L837 103L798 216Z" fill="#c4c4c4" stroke="#c4c4c4"></path><path d="M798 216L837 103L712 120Z" fill="#ffffff" stroke="#ffffff"></path><path d="M517 600L615 600L635 507Z" fill="#f8f8f8" stroke="#f8f8f8"></path><path d="M710 600L815 489L669 472Z" fill="#cbcbcb" stroke="#cbcbcb"></path><path d="M75 0L0 90L120 87Z" fill="#c4c4c4" stroke="#c4c4c4"></path><path d="M0 223L0 331L123 324Z" fill="#dedede" stroke="#dedede"></path><path d="M118 433L100 521L198 515Z" fill="#d1d1d1" stroke="#d1d1d1"></path><path d="M0 525L100 521L118 433Z" fill="#ffffff" stroke="#ffffff"></path><path d="M198 515L189 600L303 600Z" fill="#cbcbcb" stroke="#cbcbcb"></path><path d="M0 331L0 377L123 324Z" fill="#e5e5e5" stroke="#e5e5e5"></path><path d="M135 600L189 600L198 515Z" fill="#ffffff" stroke="#ffffff"></path><path d="M75 0L0 0L0 90Z" fill="#ffffff" stroke="#ffffff"></path><path d="M900 300L798 216L771 294Z" fill="#ebebeb" stroke="#ebebeb"></path><path d="M837 103L900 0L793 0Z" fill="#e5e5e5" stroke="#e5e5e5"></path><path d="M710 600L669 472L635 507Z" fill="#ebebeb" stroke="#ebebeb"></path><path d="M781 377L900 300L771 294Z" fill="#e5e5e5" stroke="#e5e5e5"></path><path d="M900 401L900 300L781 377Z" fill="#cbcbcb" stroke="#cbcbcb"></path><path d="M900 161L900 113L837 103Z" fill="#f2f2f2" stroke="#f2f2f2"></path><path d="M615 600L710 600L635 507Z" fill="#e5e5e5" stroke="#e5e5e5"></path><path d="M0 600L135 600L100 521Z" fill="#d8d8d8" stroke="#d8d8d8"></path><path d="M100 521L135 600L198 515Z" fill="#bebebe" stroke="#bebebe"></path><path d="M900 493L900 401L815 489Z" fill="#ffffff" stroke="#ffffff"></path><path d="M815 489L900 401L781 377Z" fill="#ebebeb" stroke="#ebebeb"></path><path d="M900 113L900 0L837 103Z" fill="#bebebe" stroke="#bebebe"></path><path d="M710 600L776 600L815 489Z" fill="#d8d8d8" stroke="#d8d8d8"></path><path d="M0 377L0 525L118 433Z" fill="#ebebeb" stroke="#ebebeb"></path><path d="M900 600L900 493L815 489Z" fill="#bebebe" stroke="#bebebe"></path><path d="M0 525L0 600L100 521Z" fill="#e5e5e5" stroke="#e5e5e5"></path><path d="M776 600L900 600L815 489Z" fill="#ffffff" stroke="#ffffff"></path></g></svg>