<svg id="visual" viewBox="0 0 960 540" width="960" height="540" xmlns="http://www.w3.org/2000/svg" xmlns:xlink="http://www.w3.org/1999/xlink" version="1.1"><rect x="0" y="0" width="960" height="540" fill="#001220"></rect><path d="M0 317L26.7 326.3C53.3 335.7 106.7 354.3 160 362.8C213.3 371.3 266.7 369.7 320 365C373.3 360.3 426.7 352.7 480 341.5C533.3 330.3 586.7 315.7 640 317C693.3 318.3 746.7 335.7 800 346.7C853.3 357.7 906.7 362.3 933.3 364.7L960 367L960 541L933.3 541C906.7 541 853.3 541 800 541C746.7 541 693.3 541 640 541C586.7 541 533.3 541 480 541C426.7 541 373.3 541 320 541C266.7 541 213.3 541 160 541C106.7 541 53.3 541 26.7 541L0 541Z" fill="#fa7268"></path><path d="M0 366L26.7 369.3C53.3 372.7 106.7 379.3 160 381.2C213.3 383 266.7 380 320 381.7C373.3 383.3 426.7 389.7 480 394.8C533.3 400 586.7 404 640 398.8C693.3 393.7 746.7 379.3 800 375.2C853.3 371 906.7 377 933.3 380L960 383L960 541L933.3 541C906.7 541 853.3 541 800 541C746.7 541 693.3 541 640 541C586.7 541 533.3 541 480 541C426.7 541 373.3 541 320 541C266.7 541 213.3 541 160 541C106.7 541 53.3 541 26.7 541L0 541Z" fill="#eb5967"></path><path d="M0 454L26.7 445.5C53.3 437 106.7 420 160 412C213.3 404 266.7 405 320 415.5C373.3 426 426.7 446 480 450.5C533.3 455 586.7 444 640 442.7C693.3 441.3 746.7 449.7 800 445.8C853.3 442 906.7 426 933.3 418L960 410L960 541L933.3 541C906.7 541 853.3 541 800 541C746.7 541 693.3 541 640 541C586.7 541 533.3 541 480 541C426.7 541 373.3 541 320 541C266.7 541 213.3 541 160 541C106.7 541 53.3 541 26.7 541L0 541Z" fill="#da3f67"></path><path d="M0 500L26.7 497.2C53.3 494.3 106.7 488.7 160 491C213.3 493.3 266.7 503.7 320 503.5C373.3 503.3 426.7 492.7 480 489.3C533.3 486 586.7 490 640 492.3C693.3 494.7 746.7 495.3 800 498C853.3 500.7 906.7 505.3 933.3 507.7L960 510L960 541L933.3 541C906.7 541 853.3 541 800 541C746.7 541 693.3 541 640 541C586.7 541 533.3 541 480 541C426.7 541 373.3 541 320 541C266.7 541 213.3 541 160 541C106.7 541 53.3 541 26.7 541L0 541Z" fill="#c62368"></path></svg>